# xmcd
#
# Track frame offsets: 
#        225
#        12017
#        25104
#        39591
#        51009
#        62852
#        74216
#        88279
#        98499
#        111183
#        122087
#        135930
#        147925
#        158858
#        174181
#        184687
#
# Disc length: 2651 seconds
#
# Revision: 1
# Processed by: cddbd v1.5.2PL0 Copyright (c) Steve Scherf et al.
# Submitted via: ExactAudioCopy v0.95b4
#
DISCID=d60a5810
DTITLE=ישראל גוריון - ישראל גוריון
DYEAR=1964
DGENRE=Ethnic
TTITLE0=אהבה באלחוט 
TTITLE1=בוטנים
TTITLE2=אסנת
TTITLE3=נמל בברזיל
TTITLE4=רייזלה
TTITLE5=הגשם
TTITLE6=בובה קטנה
TTITLE7=לי לא אכפת  
TTITLE8=לך הבאתי
TTITLE9=מסוף העולם  
TTITLE10=די גי די גי דום
TTITLE11=דו קיירה
TTITLE12=נומי נומי
TTITLE13=היא היתה ילדה בלי שם
TTITLE14=החליל
TTITLE15=אני גיטרה
EXTD=
EXTT0=
EXTT1=
EXTT2=
EXTT3=
EXTT4=
EXTT5=
EXTT6=
EXTT7=
EXTT8=
EXTT9=
EXTT10=
EXTT11=
EXTT12=
EXTT13=
EXTT14=
EXTT15=
PLAYORDER=
